<svg xmlns="http://www.w3.org/2000/svg" viewBox="0 0 227 44.43531" preserveAspectRatio="none" class="w-100 interreg-logo img-fluid replaced-svg"><title>logo_interreg</title><path d="M26.093,29.90114h3.00181a2.5761,2.5761,0,0,1,1.84349.63084,1.59013,1.59013,0,0,1,.45332,1.139v.02044a1.71751,1.71751,0,0,1-1.11824,1.64766,1.787,1.787,0,0,1,1.511,1.71854v.02c0,1.22076-1.01742,1.94259-2.55858,1.94259H26.093Zm2.871,3.1734c.95689,0,1.62157-.43725,1.62157-1.27085v-.02084c0-.70135-.55374-1.15943-1.56125-1.15943H26.87874v2.45116Zm.28182,3.22388c1.06783,0,1.73275-.47773,1.73275-1.2713v-.02044c0-.77272-.64465-1.22036-1.87366-1.22036H26.87874v2.51209Z" style="fill:#005580"></path><path d="M32.84128,35.49527v-.02044c0-1.129.90665-1.719,2.22636-1.719a5.40443,5.40443,0,0,1,1.59143.224v-.16269c0-.9358-.56409-1.424-1.54123-1.424a3.60079,3.60079,0,0,0-1.58147.37593l-.23162-.64047a4.23345,4.23345,0,0,1,1.89369-.44767,2.298,2.298,0,0,1,1.68232.57993,2.09134,2.09134,0,0,1,.54389,1.54582v3.21348h-.76553v-.78271a2.27611,2.27611,0,0,1-1.8735.89493,1.75375,1.75375,0,0,1-1.9368-1.54922Q32.84395,35.53934,32.84128,35.49527Zm3.82791-.40721v-.48812a5.31148,5.31148,0,0,0-1.52116-.22325c-.967,0-1.521.42683-1.521,1.05726v.02044c0,.66086.60439,1.04761,1.30961,1.04761a1.56218,1.56218,0,0,0,1.72869-1.37563l.00388-.03831Z" style="fill:#005580"></path><path d="M39.13669,29.59653h.77545v7.42372h-.77545Z" style="fill:#005580"></path><path d="M41.98687,35.6275V32.4541h-.72519v-.69173h.72519V30.176h.77568v1.58633h1.652v.69173h-1.652v3.07164a.774.774,0,0,0,.87648.87448,1.61865,1.61865,0,0,0,.7554-.18307v.67129a1.93744,1.93744,0,0,1-.93683.224,1.33192,1.33192,0,0,1-1.47073-1.485Z" style="fill:#005580"></path><path d="M45.8043,29.74886h.88655v.86448h-.88659Zm.05037,2.01351h.77569v5.25787h-.77569Z" style="fill:#005580"></path><path d="M48.11061,34.41672v-.02a2.7075,2.7075,0,0,1,4.75483-1.81029l-.51389.54907a2.09628,2.09628,0,0,0-1.58147-.79356,1.93293,1.93293,0,0,0-1.86515,1.99842l.00159.03634v.02a1.95621,1.95621,0,0,0,1.866,2.04245l.04777.00157a2.1395,2.1395,0,0,0,1.59159-.78312l.49365.4681a2.689,2.689,0,0,1-4.79491-1.709Z" style="fill:#005580"></path><path d="M56.87354,35.983l.49362-.58956a3.34275,3.34275,0,0,0,2.41749,1.00678c.94694,0,1.5714-.50817,1.5714-1.21041v-.02c0-.66126-.35251-1.03761-1.83321-1.35261-1.62181-.35633-2.36723-.885-2.36723-2.05483v-.02A2.08845,2.08845,0,0,1,59.3727,29.791q.05.00318.09977.00876a3.65806,3.65806,0,0,1,2.478.87449l-.46327.62084a3.07777,3.07777,0,0,0-2.03484-.77317c-.91677,0-1.50089.5086-1.50089,1.149v.02044c0,.67134.36266,1.04764,1.91375,1.38313,1.57136.34588,2.29685.92537,2.29685,2.01352v.02043c0,1.22037-1.00736,2.01389-2.40762,2.01389A4.10334,4.10334,0,0,1,56.87354,35.983Z" style="fill:#005580"></path><path d="M65.94908,36.46115a2.1464,2.1464,0,0,0,1.642-.74266l.48331.43764a2.67742,2.67742,0,0,1-2.14557.98676,2.75433,2.75433,0,0,1-.10062-5.49234,2.498,2.498,0,0,1,2.4276,2.78664c0,.07137,0,.1527-.0101.27456h-4.13A1.827,1.827,0,0,0,65.94908,36.46115Zm1.521-2.37983a1.71937,1.71937,0,0,0-1.66188-1.76947,1.80675,1.80675,0,0,0-1.69248,1.76947Z" style="fill:#005580"></path><path d="M69.22218,35.49527v-.02044c0-1.129.90666-1.719,2.22637-1.719a5.4071,5.4071,0,0,1,1.59167.224v-.16269c0-.9358-.56433-1.424-1.54143-1.424a3.60086,3.60086,0,0,0-1.58148.37593l-.23161-.64047a4.23381,4.23381,0,0,1,1.89364-.44767,2.29809,2.29809,0,0,1,1.68232.57993,2.09136,2.09136,0,0,1,.54389,1.54582v3.21348h-.76533v-.78271a2.27694,2.27694,0,0,1-1.8739.89493,1.75357,1.75357,0,0,1-1.93659-1.54907Q69.22484,35.53942,69.22218,35.49527Zm3.82791-.40721v-.48812a5.31136,5.31136,0,0,0-1.52115-.22325c-.967,0-1.521.42683-1.521,1.05726v.02044c0,.66086.60438,1.04761,1.3096,1.04761a1.56217,1.56217,0,0,0,1.72869-1.37562l.00388-.03832Z" style="fill:#005580"></path><path d="M78.599,29.90114h3.03221a2.76335,2.76335,0,0,1,2.00465.7122,1.97683,1.97683,0,0,1,.54383,1.40352v.02044A2.07573,2.07573,0,0,1,82.266,34.11212l2.166,2.9081h-.97734L81.4101,34.254H79.39518v2.76621h-.79612ZM81.561,33.53225c1.05788,0,1.81314-.54951,1.81314-1.46449v-.02043c0-.87489-.66492-1.40353-1.80343-1.40353H79.39518v2.88845Z" style="fill:#005580"></path><path d="M87.9465,36.46115a2.1465,2.1465,0,0,0,1.64221-.74266l.4831.43764a2.67714,2.67714,0,0,1-2.14517.98676,2.75435,2.75435,0,0,1-.10082-5.49234,2.498,2.498,0,0,1,2.4274,2.78664c0,.07137,0,.1527-.0099.27456h-4.13A1.82736,1.82736,0,0,0,87.9465,36.46115Zm1.52116-2.37983a1.71957,1.71957,0,0,0-1.66252-1.76947,1.80669,1.80669,0,0,0-1.69184,1.76947Z" style="fill:#005580"></path><path d="M91.55209,37.936,91.905,37.326a3.30867,3.30867,0,0,0,2.00461.671,1.71995,1.71995,0,0,0,1.89393-1.87126v-.62084a2.46431,2.46431,0,0,1-2.04556,1.109,2.41943,2.41943,0,0,1-2.44786-2.39066q-.00042-.03527.0002-.07054v-.02044a2.46118,2.46118,0,0,1,4.48287-1.424v-.94584h.77528v4.3433a2.54633,2.54633,0,0,1-.66451,1.86079,2.72351,2.72351,0,0,1-1.98479.70135A4.05586,4.05586,0,0,1,91.55209,37.936Zm4.27129-3.79378v-.02044a1.83211,1.83211,0,0,0-1.88182-1.781l-.03194.00115a1.73032,1.73032,0,0,0-1.80232,1.65517q-.00244.0575-.00106.11507v.02006a1.77079,1.77079,0,0,0,1.75134,1.79005q.026.00029.052-.0002a1.84489,1.84489,0,0,0,1.91353-1.77361l.00023-.00618Z" style="fill:#005580"></path><path d="M98.32109,29.74886h.886v.86448h-.886Zm.05,2.01351h.776v5.25787h-.776Z" style="fill:#005580"></path><path d="M100.62739,34.41672v-.02a2.71493,2.71493,0,0,1,5.42952-.06126q.00023.02061.00015.04124v.02a2.71752,2.71752,0,0,1-2.68866,2.74608q-.02082.00021-.04164.00012a2.68154,2.68154,0,0,1-2.69968-2.66327Q100.62687,34.44817,100.62739,34.41672Zm4.63371,0v-.02a1.9816,1.9816,0,0,0-1.90652-2.05394l-.02786-.00084a1.93268,1.93268,0,0,0-1.906,1.959q.00052.03787.00252.07572v.02a1.96382,1.96382,0,0,0,1.88157,2.04274l.04248.00128a1.93165,1.93165,0,0,0,1.916-1.94722q-.00031-.0384-.00215-.07677Z" style="fill:#005580"></path><path d="M107.45675,31.76238h.77525v.91579a1.96953,1.96953,0,0,1,1.78356-1.02762,1.91245,1.91245,0,0,1,1.9943,2.10534v3.26438h-.776V33.94946a1.3957,1.3957,0,0,0-1.4402-1.58671,1.54077,1.54077,0,0,0-1.56519,1.516q-.001.06586.00353.13165v3.0099h-.77524Z" style="fill:#005580"></path><path d="M99.73424,17.42242a5.20835,5.20835,0,0,0,4.84891,5.54453q.19519.01307.391.01145a4.59954,4.59954,0,0,0,3.85131-1.93333V21.623c0,2.13378-1.0781,3.24435-3.36776,3.24435a7.64079,7.64079,0,0,1-3.98393-1.08891l-1.14485,2.5337a11.10667,11.10667,0,0,0,5.21688,1.24483c2.28966,0,3.98467-.48935,5.08508-1.60032a6.42873,6.42873,0,0,0,1.49654-4.68955V18.91571q-1.67316-.3216-3.43608-.61479a2.77714,2.77714,0,0,1-2.74936,1.87727,2.70581,2.70581,0,0,1-2.85537-2.54747q-.00477-.08364-.00435-.16744-1.63868-.21765-3.33291-.41325c-.00475.10906-.0151.21521-.0151.32793Z" style="fill:#005580"></path><path d="M86.63613,18.06686A6.21915,6.21915,0,0,0,97.62,22.00051l-1.91492-1.7113A3.84858,3.84858,0,0,1,92.843,21.51156a2.74254,2.74254,0,0,1-2.88357-2.33331h8.21074c.02222-.31185.04443-.62284.04443-.88895A8.87232,8.87232,0,0,0,98.098,16.865q-1.60056-.172-3.244-.32505a4.14523,4.14523,0,0,1,.10239.52661H89.91579a4.2289,4.2289,0,0,1,.262-.915q-1.59334-.1173-3.21617-.21642a6.85219,6.85219,0,0,0-.32549,2.08728Z" style="fill:#005580"></path><path d="M81.46231,23.95638V19.55576c0-1.983.66456-3.24033,1.81968-3.82143q-2.55325-.12205-5.16562-.19881v8.42087Z" style="fill:#005580"></path><path d="M72.26,23.95638V19.55576c0-2.40388.97732-3.74091,2.62153-4.0984q-2.86827-.05472-5.78453-.05533c-.06113,0-.12186.00045-.18259.00045v8.55389Z" style="fill:#005580"></path><path d="M54.84687,18.06686a6.21916,6.21916,0,0,0,10.98394,3.93365l-1.915-1.7113a3.84892,3.84892,0,0,1-2.86167,1.22235,2.74276,2.74276,0,0,1-2.884-2.33331h8.21074c.02222-.31185.04444-.62284.04444-.88895a8.20809,8.20809,0,0,0-.495-2.87081q-1.68687.01683-3.35707.05289a3.4306,3.4306,0,0,1,.59383,1.59513H58.12653a3.766,3.766,0,0,1,.5661-1.48651q-1.73689.06013-3.45.13909a6.83633,6.83633,0,0,0-.39577,2.3033Z" style="fill:#005580"></path><path d="M50.26748,24.15635a4.89836,4.89836,0,0,0,2.64142-.689V20.7561a3.379,3.379,0,0,1-1.651.422c-.74828,0-1.07888-.37752-1.07888-1.15545V16.00126q-1.69055.11005-3.346.24048v4.336c0,2.75659,1.387,3.57862,3.43451,3.57862" style="fill:#005580"></path><path d="M40.4705,17.40316v6.54921h3.346v-5.934a7.11918,7.11918,0,0,0-.16152-1.50693q-1.63038.1491-3.22333.31745a4.36854,4.36854,0,0,1,.03892.57429" style="fill:#005580"></path><path d="M32.44792,18.06283v5.88954h3.346V17.40276l.00119-.02844q-1.70059.2194-3.34165.46246c-.00158.06053-.00553.12069-.00553.18157Z" style="fill:#005580"></path><path d="M29.45643,23.95638V18.30851q-1.73574.291-3.39007.6072v5.04067Z" style="fill:#005580"></path><path d="M103.08063,17.42242V17.378a2.87527,2.87527,0,0,1,5.7456,0v.04444a2.86283,2.86283,0,0,1-.13494.8785q1.76011.29326,3.43685.61479V12.04389h-3.34635v1.55585a4.76,4.76,0,0,0-3.80846-1.7783,5.186,5.186,0,0,0-5.22406,5.14761q-.0003.04049,0,.081,1.69229.19541,3.33372.41325c-.00081-.014-.0024-.02726-.0024-.04088" style="fill:#27aae1"></path><path d="M92.46906,14.53317a2.411,2.411,0,0,1,2.38571,2.00669q1.641.15264,3.24319.325c-.44858-2.77385-2.25315-5.04348-5.62891-5.04348a5.7081,5.7081,0,0,0-5.50744,4.11368q1.62314.09974,3.21617.21642a2.40307,2.40307,0,0,1,2.29128-1.61833" style="fill:#27aae1"></path><path d="M85.05006,15.35515h.17626V11.82146a3.6462,3.6462,0,0,0-3.764,2.6227V12.04349h-3.346v3.49243q2.60862.077,5.16562.198a3.90367,3.90367,0,0,1,1.76809-.37875" style="fill:#27aae1"></path><path d="M74.8815,15.45736a4.51781,4.51781,0,0,1,.967-.10221H76.024V11.82146a3.64629,3.64629,0,0,0-3.764,2.6227V12.04349H68.91439v3.3594c.06113,0,.12145-.00089.18259-.00089q2.91528,0,5.78452.05532" style="fill:#27aae1"></path><path d="M60.6798,14.53317a2.25129,2.25129,0,0,1,1.89312.93861q1.67025-.03608,3.35786-.0537a5.28422,5.28422,0,0,0-5.251-3.59659A5.69105,5.69105,0,0,0,55.243,15.71911q1.71126-.07935,3.45-.13909a2.31151,2.31151,0,0,1,1.98679-1.04683" style="fill:#27aae1"></path><path d="M50.17937,14.93311h2.77316V12.04393H50.17937V8.99923h-3.346V12.044H45.42458v2.88918h1.40881v1.30818q1.65591-.12924,3.346-.24007Z" style="fill:#27aae1"></path><path d="M37.17968,14.95638a2.26474,2.26474,0,0,1,1.905,0,2.22136,2.22136,0,0,1,1.34689,1.87285q1.5905-.16952,3.22333-.31816a5.7682,5.7682,0,0,0-2.99153-4.00948,5.04355,5.04355,0,0,0-5.06285,0,5.97149,5.97149,0,0,0-3.14712,5.33521q1.63989-.24351,3.34164-.46246a2.36155,2.36155,0,0,1,1.3846-2.41794" style="fill:#27aae1"></path><path d="M29.45643,8.39915H26.06636V18.91608q1.65171-.31739,3.39007-.60761Z" style="fill:#27aae1"></path><path d="M5.04864,11.7243a1.26822,1.26822,0,0,0-1.26211,1.27431v2.54852a1.26227,1.26227,0,1,0,2.52443.0234q.0001-.0116,0-.0232h0V12.99876A1.26828,1.26828,0,0,0,5.04887,11.7243Z" style="fill:#005580"></path><path d="M8.83524,9.68531a1.26806,1.26806,0,0,0-1.26191,1.2742v5.09741a1.26209,1.26209,0,1,0,2.52407.02417q.0001-.01209,0-.02417h0V10.95958A1.2679,1.2679,0,0,0,8.83592,9.68531Z" style="fill:#005580"></path><path d="M12.62188,6.117a1.26842,1.26842,0,0,0-1.26232,1.2743l.00016.001-.00016,7.64391V15.037a1.26217,1.26217,0,1,0,2.52423.0243q.00012-.01206,0-.02414h0l.0002-7.64591A1.26807,1.26807,0,0,0,12.62219,6.117Z" style="fill:#27aae1"></path><path d="M16.40852,1.7843a1.2681,1.2681,0,0,0-1.26236,1.27381v.00028l.0002.00057V13.25284l-.0002.00045a1.26268,1.26268,0,0,0,2.52525.02438q.00012-.01209,0-.02418h0V3.05839A1.26844,1.26844,0,0,0,16.40863,1.7843Z" style="fill:#27aae1"></path><path d="M20.19553.2551a1.26807,1.26807,0,0,0-1.262,1.27416V9.17569a1.26227,1.26227,0,1,0,2.52443.0232q.00011-.0116,0-.0232h0V1.5294A1.26868,1.26868,0,0,0,20.19553.2551Z" style="fill:#27aae1"></path><path d="M23.98172,0a1.26829,1.26829,0,0,0-1.26154,1.2745V6.37163a1.2621,1.2621,0,1,0,2.52406.02634q.00014-.013,0-.026h0V1.2745A1.26887,1.26887,0,0,0,23.98172,0Z" style="fill:#9aca3c"></path><path d="M27.76832,1.14723a1.268,1.268,0,0,0-1.26192,1.274V4.97012a1.26228,1.26228,0,1,0,2.52444.024q.00012-.012,0-.024h0V2.42152a1.26833,1.26833,0,0,0-1.26232-1.27429Z" style="fill:#9aca3c"></path><path d="M32.81708,4.588a1.27431,1.27431,0,1,1,0-.00007Z" style="fill:#9aca3c"></path><path d="M2.52436,14.01793a1.26852,1.26852,0,0,1-1.262,1.27451,1.27455,1.27455,0,0,1,0-2.549A1.26851,1.26851,0,0,1,2.52436,14.01793Z" style="fill:#005580"></path><polygon points="120.878 40.273 123.808 40.273 123.808 40.694 121.336 40.694 121.336 42.09 123.549 42.09 123.549 42.513 121.336 42.513 121.336 43.945 123.838 43.945 123.838 44.365 120.878 44.365 120.878 40.273" style="fill:#034ea2"></polygon><path d="M124.69453,42.6522v-2.38h.45781v2.35022c0,.88353.46328,1.38024,1.23975,1.38024.7466,0,1.22145-.45471,1.22145-1.35055v-2.38h.459V42.6175a1.69219,1.69219,0,1,1-3.378.03461" style="fill:#034ea2"></path><path d="M129.15573,40.27228h1.74345a1.59189,1.59189,0,0,1,1.15285.41023,1.13328,1.13328,0,0,1,.31214.80563v.01112a1.19338,1.19338,0,0,1-1.10029,1.19368l1.24347,1.6719h-.56113L130.77,42.7745h-1.15843v1.59034h-.4559Zm1.70186,2.087c.60829,0,1.04334-.31514,1.04334-.84272v-.01112c0-.50172-.38184-.807-1.03786-.807h-1.25148v1.66077Z" style="fill:#034ea2"></path><path d="M133.16343,42.33093v-.01238a2.06854,2.06854,0,1,1,4.136-.09634q.001.04262.00023.08524v.0111a2.06543,2.06543,0,0,1-2.01348,2.11608q-.03113.00077-.06227.0006a2.04418,2.04418,0,0,1-2.06125-2.027q-.00032-.03867.00082-.07733m3.66006,0v-.01238a1.62081,1.62081,0,0,0-1.55085-1.68788l-.04882-.00133a1.60071,1.60071,0,0,0-1.5874,1.6139q.00027.03213.00182.06422v.01109a1.62029,1.62029,0,0,0,1.5485,1.689l.0487.00138a1.60185,1.60185,0,0,0,1.5898-1.61381q-.00024-.03213-.00178-.06422" style="fill:#034ea2"></path><path d="M138.26589,40.27228h1.51761c.9149,0,1.51827.49176,1.51827,1.29742v.01361c0,.88106-.7301,1.33828-1.59354,1.33828H138.723v1.44325h-.45714Zm1.45888,2.22788c.67312,0,1.11373-.36328,1.11373-.9008v-.01231c0-.58328-.43508-.88849-1.08928-.88849H138.723v1.8016Z" style="fill:#034ea2"></path><polygon points="142.135 40.273 145.065 40.273 145.065 40.694 142.593 40.694 142.593 42.09 144.807 42.09 144.807 42.513 142.593 42.513 142.593 43.945 145.095 43.945 145.095 44.365 142.135 44.365 142.135 40.273" style="fill:#034ea2"></polygon><path d="M147.51493,40.24259h.429l1.84932,4.12225h-.49385l-.47429-1.08124H146.619l-.48222,1.08124h-.46872Zm1.13026,2.62587-.92033-2.08712-.92651,2.08712Z" style="fill:#034ea2"></path><polygon points="150.593 40.273 151.019 40.273 153.575 43.553 153.575 40.273 154.02 40.273 154.02 44.365 153.654 44.365 151.039 41.008 151.039 44.365 150.593 44.365 150.593 40.273" style="fill:#034ea2"></polygon><path d="M156.84232,42.6522v-2.38h.45714v2.35022c0,.88353.46141,1.38024,1.23856,1.38024.74665,0,1.22268-.45471,1.22268-1.35055v-2.38h.4578V42.6175a1.69131,1.69131,0,1,1-3.37618.03461" style="fill:#034ea2"></path><polygon points="161.302 40.273 161.731 40.273 164.284 43.553 164.284 40.273 164.729 40.273 164.729 44.365 164.364 44.365 161.748 41.008 161.748 44.365 161.302 44.365 161.302 40.273" style="fill:#034ea2"></polygon><rect x="165.91758" y="40.27228" width="0.45775" height="4.09381" style="fill:#034ea2"></rect><path d="M167.3826,42.33093v-.01238a2.06854,2.06854,0,1,1,4.136-.09634q.001.04262.00023.08524v.0111a2.06852,2.06852,0,0,1-4.13594.09571q-.001-.04165-.00024-.08333m3.66006,0v-.01238a1.62045,1.62045,0,0,0-1.55011-1.68788l-.04769-.00133a1.60157,1.60157,0,0,0-1.58981,1.61324q.00024.03246.00179.06488v.01109a1.6223,1.6223,0,0,0,1.55263,1.68912l.047.0013a1.60145,1.60145,0,0,0,1.58793-1.61485q-.00027-.0316-.00178-.06318" style="fill:#034ea2"></path><polygon points="172.484 40.273 172.914 40.273 175.468 43.553 175.468 40.273 175.914 40.273 175.914 44.365 175.549 44.365 172.931 41.008 172.931 44.365 172.484 44.365 172.484 40.273" style="fill:#034ea2"></polygon><rect x="120.88982" y="0.08298" width="55.03598" height="37.04277" style="fill:#034ea2"></rect><polygon points="147.234 8.153 148.397 7.298 149.559 8.153 149.115 6.77 150.296 5.913 148.84 5.913 148.397 4.514 147.951 5.916 146.499 5.913 147.676 6.77 147.234 8.153" style="fill:#fff200"></polygon><polygon points="141.226 9.784 142.387 8.928 143.545 9.784 143.105 8.401 144.283 7.544 142.829 7.544 142.386 6.144 141.941 7.546 140.487 7.544 141.665 8.401 141.226 9.784" style="fill:#fff200"></polygon><polygon points="137.987 10.593 137.544 11.997 136.09 11.994 137.272 12.851 136.828 14.233 137.987 13.379 139.151 14.233 138.708 12.851 139.886 11.994 138.434 11.994 137.987 10.593" style="fill:#fff200"></polygon><polygon points="136.374 19.44 137.538 20.294 137.093 18.909 138.274 18.055 136.822 18.055 136.374 16.653 135.932 18.058 134.475 18.055 135.656 18.909 135.215 20.294 136.374 19.44" style="fill:#fff200"></polygon><polygon points="138.434 24.133 137.987 22.73 137.544 24.134 136.092 24.133 137.272 24.989 136.829 26.373 137.987 25.514 139.151 26.373 138.708 24.989 139.886 24.133 138.434 24.133" style="fill:#fff200"></polygon><polygon points="142.841 28.581 142.395 27.182 141.95 28.583 140.497 28.581 141.677 29.436 141.234 30.822 142.395 29.967 143.557 30.822 143.114 29.436 144.295 28.581 142.841 28.581" style="fill:#fff200"></polygon><polygon points="148.843 30.192 148.397 28.791 147.953 30.194 146.496 30.192 147.676 31.048 147.235 32.432 148.399 31.577 149.559 32.432 149.117 31.048 150.296 30.192 148.843 30.192" style="fill:#fff200"></polygon><polygon points="154.844 28.581 154.398 27.182 153.954 28.583 152.5 28.581 153.678 29.436 153.238 30.822 154.398 29.967 155.561 30.822 155.116 29.436 156.298 28.581 154.844 28.581" style="fill:#fff200"></polygon><polygon points="159.251 24.133 158.805 22.73 158.36 24.134 156.907 24.133 158.086 24.989 157.644 26.373 158.805 25.514 159.967 26.373 159.525 24.989 160.702 24.133 159.251 24.133" style="fill:#fff200"></polygon><polygon points="162.3 18.039 160.844 18.039 160.4 16.636 159.955 18.039 158.502 18.039 159.68 18.893 159.242 20.276 160.4 19.42 161.561 20.276 161.119 18.893 162.3 18.039" style="fill:#fff200"></polygon><polygon points="157.644 14.216 158.805 13.36 159.967 14.216 159.525 12.832 160.705 11.978 159.251 11.978 158.805 10.576 158.36 11.979 156.907 11.978 158.086 12.832 157.644 14.216" style="fill:#fff200"></polygon><polygon points="154.417 6.145 153.971 7.549 152.52 7.545 153.696 8.404 153.255 9.786 154.417 8.929 155.578 9.786 155.135 8.404 156.315 7.545 154.861 7.545 154.417 6.145" style="fill:#fff200"></polygon><path d="M181.72527,12.86882h2.93683v.42265h-2.47845v1.4h2.21768v.42135h-2.21768V16.5487h2.50774v.42266h-2.96612Z" style="fill:#58595b"></path><path d="M185.55121,15.25373V12.86882h.45832v2.35525c0,.88472.4651,1.38268,1.24289,1.38268.74909,0,1.22451-.45722,1.22451-1.35306V12.86882h.4584v2.35025a1.69534,1.69534,0,1,1-3.38414.03461Z" style="fill:#58595b"></path><path d="M190.02275,12.86882h1.74713a1.59071,1.59071,0,0,1,1.15476.41022,1.1366,1.1366,0,0,1,.314.80936v.01114a1.19542,1.19542,0,0,1-1.10339,1.19493l1.24775,1.67686h-.56234L191.642,15.37726h-1.16085v1.59407h-.45836Zm1.70613,2.092c.60955,0,1.04582-.31638,1.04582-.84394v-.01238c0-.50292-.38428-.8081-1.04028-.8081h-1.25331v1.6644Z" style="fill:#58595b"></path><path d="M194.04206,14.9312v-.01113a2.07224,2.07224,0,1,1,4.1433-.09856q.001.04371.00023.08744c.00554.00491.00554.00491,0,.01112a2.07224,2.07224,0,1,1-4.1433.09856Q194.04125,14.97492,194.04206,14.9312Zm3.66684,0v-.01113a1.62313,1.62313,0,0,0-1.55045-1.69269L196.108,13.226a1.6048,1.6048,0,0,0-1.59232,1.61719q.00024.03293.00185.06581v.01112a1.623,1.623,0,0,0,1.55152,1.69151l.05055.00139a1.60428,1.60428,0,0,0,1.59112-1.61735q-.00027-.03222-.00182-.06442Z" style="fill:#58595b"></path><path d="M199.1574,12.86882h1.52066c.91672,0,1.52073.49175,1.52073,1.30115v.01114c0,.88479-.73191,1.34194-1.59654,1.34194h-.98652v1.44828h-.45832Zm1.46192,2.23287c.67377,0,1.11438-.36453,1.11438-.90324v-.01117c0-.58574-.43448-.89093-1.0905-.89093h-1.0275v1.8053Z" style="fill:#58595b"></path><path d="M203.03592,12.86882h2.93682v.42265h-2.47781v1.4H205.712v.42135h-2.21711V16.5487h2.50713v.42266h-2.96615Z" style="fill:#58595b"></path><path d="M208.4291,12.83912h.43013l1.85184,4.13221h-.49322l-.47672-1.085h-2.21036l-.4822,1.085H206.578Zm1.1327,2.632-.92342-2.092-.92834,2.092Z" style="fill:#58595b"></path><path d="M211.51455,12.86882h.429l2.55979,3.28692V12.86882H214.95v4.10251h-.36587l-2.62286-3.3648v3.3648h-.44674Z" style="fill:#58595b"></path><path d="M181.72527,19.45685h1.74649a1.59147,1.59147,0,0,1,1.1554.41022,1.14126,1.14126,0,0,1,.31335.80941v.01113a1.19442,1.19442,0,0,1-1.10276,1.19493l1.24775,1.67555h-.56234l-1.17865-1.594h-1.16086v1.594h-.45838Zm1.70615,2.092c.60948,0,1.04525-.31754,1.04525-.8439v-.01117c0-.50413-.38371-.80936-1.03973-.80936h-1.25329v1.66443Z" style="fill:#58595b"></path><path d="M185.92389,19.45685h2.93675v.42139h-2.47839v1.4013h2.21711v.42135h-2.21711v1.43585H188.89v.42135h-2.96615Z" style="fill:#58595b"></path><path d="M189.63478,21.52045V21.5081a2.0488,2.0488,0,0,1,1.97465-2.12038l.06194-.00127a2.13323,2.13323,0,0,1,1.51525.54493l-.29683.35214a1.71736,1.71736,0,0,0-1.23611-.46949,1.59691,1.59691,0,0,0-1.54488,1.64729l.00155.03565v.01113a1.57862,1.57862,0,0,0,1.60755,1.70525,1.8923,1.8923,0,0,0,1.1719-.41147V21.78363h-1.23611v-.4164H193.331v1.63611a2.447,2.447,0,0,1-1.63023.62523,2.00117,2.00117,0,0,1-2.06781-1.9322Q189.63,21.60841,189.63478,21.52045Z" style="fill:#58595b"></path><path d="M194.4074,19.45685h.45893v4.10124h-.45893Z" style="fill:#58595b"></path><path d="M195.8773,21.52045V21.5081a2.07224,2.07224,0,0,1,4.14331-.09856q.001.04371.00023.08743c.00613.00623.00613.00623,0,.01113a2.0722,2.0722,0,0,1-4.14329.0962Q195.87659,21.56238,195.8773,21.52045Zm3.66749,0V21.5081a1.6236,1.6236,0,0,0-1.55147-1.69267l-.05-.00141a1.6048,1.6048,0,0,0-1.59235,1.61713q.00026.03293.00186.06582v.01113a1.62339,1.62339,0,0,0,1.55228,1.69153l.04979.00137a1.60411,1.60411,0,0,0,1.5917-1.61643Q199.54633,21.5525,199.54479,21.52045Z" style="fill:#58595b"></path><path d="M200.99263,19.45685h.429l2.55979,3.28692V19.45685h.44671v4.10124h-.36526L201.44,20.19581v3.36228h-.44737Z" style="fill:#58595b"></path><path d="M207.08338,19.42845h.43026l1.85117,4.12964h-.49329l-.476-1.08371h-2.211l-.48169,1.08371h-.47119Zm1.13214,2.62953-.92347-2.092-.92768,2.092Z" style="fill:#58595b"></path><path d="M210.16826,19.45685h.45832v3.67368h2.28685v.42756h-2.74521Z" style="fill:#58595b"></path><path d="M181.72527,26.04366h1.41a2.03449,2.03449,0,0,1,2.15515,1.90621q.00412.06748.00378.13514v.01113a2.0426,2.0426,0,0,1-2.03186,2.05328q-.06356.00033-.12707-.00329h-1.41Zm1.41,3.67493a1.57964,1.57964,0,0,0,1.68048-1.4719q.00459-.0696.00305-.13939v-.01112a1.59011,1.59011,0,0,0-1.55208-1.62727q-.06573-.00156-.13145.00232h-.95157v3.24733Z" style="fill:#58595b"></path><path d="M186.26657,26.04366h2.93678v.42262h-2.47842V27.8676h2.21771V28.289h-2.21771v1.43466h2.50778v.42257h-2.96616Z" style="fill:#58595b"></path><path d="M189.80856,26.04366h.511l1.44543,3.53285,1.45092-3.53285h.49322l-1.74656,4.13216h-.40633Z" style="fill:#58595b"></path><path d="M194.51265,26.04366h2.93673v.42262H194.971V27.8676h2.21711V28.289H194.971v1.43466h2.50778v.42257h-2.9661Z" style="fill:#58595b"></path><path d="M198.40287,26.04366h.45832v3.67493h2.28629v.42758h-2.74461Z" style="fill:#58595b"></path><path d="M201.5856,28.1073v-.01112a2.07227,2.07227,0,1,1,4.1433-.10106q.00109.045.00024.08993c.00553.00491.00553.00491,0,.01113a2.07221,2.07221,0,1,1-4.14331.096Q201.58484,28.14976,201.5856,28.1073Zm3.66686,0v-.01112a1.62422,1.62422,0,0,0-1.55134-1.694l-.04951-.00142a1.60562,1.60562,0,0,0-1.593,1.61813q.00027.03308.00189.06612v.01113a1.6234,1.6234,0,0,0,1.55228,1.69153l.04979.00137a1.60441,1.60441,0,0,0,1.5917-1.617Q205.254,28.13967,205.25246,28.1073Z" style="fill:#58595b"></path><path d="M206.70035,26.04366h1.52128c.91672,0,1.52074.49305,1.52074,1.30241v.01114c0,.88353-.73193,1.34194-1.59663,1.34194h-.98646v1.447h-.45893Zm1.46259,2.2342c.67372,0,1.11433-.36456,1.11433-.90327v-.01113c0-.58575-.43507-.89219-1.09111-.89219h-1.02688v1.80659Z" style="fill:#58595b"></path><path d="M210.57947,26.04366h.46445l1.47977,2.23908,1.48028-2.23908h.46385v4.10251h-.45832V26.82342l-1.47969,2.19829h-.02327l-1.47968-2.19333v3.31781h-.44737Z" style="fill:#58595b"></path><path d="M215.62014,26.04366h2.93679v.42262H216.0785V27.8676h2.21772V28.289H216.0785v1.43466h2.5078v.42257h-2.96616Z" style="fill:#58595b"></path><path d="M219.51033,26.04366h.42956l2.55921,3.287v-3.287h.44735v4.10251h-.36594l-2.62286-3.36353v3.36353h-.44731Z" style="fill:#58595b"></path><path d="M225.17208,26.47123h-1.364v-.42757H227v.42757h-1.36342v3.67494h-.4645Z" style="fill:#58595b"></path><path d="M181.72527,32.599h2.91965v.42753h-2.46127V34.492H184.383v.42262h-2.19932v1.78559h-.45838Z" style="fill:#58595b"></path><path d="M185.46984,34.985V32.599h.45837v2.35521c0,.886.465,1.384,1.24343,1.384.74849,0,1.224-.45844,1.224-1.35311V32.599h.45832v2.349a1.69533,1.69533,0,1,1-3.3841.037Z" style="fill:#58595b"></path><path d="M189.942,32.599h.429l2.55921,3.287V32.599h.44736v4.10128h-.36594l-2.62287-3.36236v3.36236H189.942Z" style="fill:#58595b"></path><path d="M194.52979,32.599h1.40994a2.03425,2.03425,0,0,1,2.15514,1.9057q.00411.06715.0038.13446v.01108a2.04267,2.04267,0,0,1-2.03194,2.05333q-.06354.00033-.127-.00329h-1.40994Zm1.40994,3.67371a1.57867,1.57867,0,0,0,1.68036-1.46995q.00466-.07.00312-.14012v-.01244a1.58914,1.58914,0,0,0-1.5513-1.6261q-.0661-.00156-.13218.00239h-.95157v3.24618Z" style="fill:#58595b"></path></svg>
