<svg preserveAspectRatio="none" viewBox="0 0 227 44.43531" xmlns="http://www.w3.org/2000/svg"><path d="m26.093 29.90114h3.00181a2.5761 2.5761 0 0 1 1.84349.63084 1.59013 1.59013 0 0 1 .45332 1.139v.02044a1.71751 1.71751 0 0 1 -1.11824 1.64766 1.787 1.787 0 0 1 1.511 1.71854v.02c0 1.22076-1.01742 1.94259-2.55858 1.94259h-3.1328zm2.871 3.1734c.95689 0 1.62157-.43725 1.62157-1.27085v-.02084c0-.70135-.55374-1.15943-1.56125-1.15943h-2.14558v2.45116zm.28182 3.22388c1.06783 0 1.73275-.47773 1.73275-1.2713v-.02044c0-.77272-.64465-1.22036-1.87366-1.22036h-2.22617v2.51209z" fill="#005580"/><path d="m32.84128 35.49527v-.02044c0-1.129.90665-1.719 2.22636-1.719a5.40443 5.40443 0 0 1 1.59143.224v-.16269c0-.9358-.56409-1.424-1.54123-1.424a3.60079 3.60079 0 0 0 -1.58147.37593l-.23162-.64047a4.23345 4.23345 0 0 1 1.89369-.44767 2.298 2.298 0 0 1 1.68232.57993 2.09134 2.09134 0 0 1 .54389 1.54582v3.21348h-.76553v-.78271a2.27611 2.27611 0 0 1 -1.8735.89493 1.75375 1.75375 0 0 1 -1.9368-1.54922q-.00487-.04382-.00754-.08789zm3.82791-.40721v-.48812a5.31148 5.31148 0 0 0 -1.52116-.22325c-.967 0-1.521.42683-1.521 1.05726v.02044c0 .66086.60439 1.04761 1.30961 1.04761a1.56218 1.56218 0 0 0 1.72869-1.37563l.00388-.03831z" fill="#005580"/><path d="m39.13669 29.59653h.77545v7.42372h-.77545z" fill="#005580"/><path d="m41.98687 35.6275v-3.1734h-.72519v-.69173h.72519v-1.58637h.77568v1.58633h1.652v.69173h-1.652v3.07164a.774.774 0 0 0 .87648.87448 1.61865 1.61865 0 0 0 .7554-.18307v.67129a1.93744 1.93744 0 0 1 -.93683.224 1.33192 1.33192 0 0 1 -1.47073-1.485z" fill="#005580"/><path d="m45.8043 29.74886h.88655v.86448h-.88659zm.05037 2.01351h.77569v5.25787h-.77569z" fill="#005580"/><path d="m48.11061 34.41672v-.02a2.7075 2.7075 0 0 1 4.75483-1.81029l-.51389.54907a2.09628 2.09628 0 0 0 -1.58147-.79356 1.93293 1.93293 0 0 0 -1.86515 1.99842l.00159.03634v.02a1.95621 1.95621 0 0 0 1.866 2.04245l.04777.00157a2.1395 2.1395 0 0 0 1.59159-.78312l.49365.4681a2.689 2.689 0 0 1 -4.79491-1.709z" fill="#005580"/><path d="m56.87354 35.983.49362-.58956a3.34275 3.34275 0 0 0 2.41749 1.00678c.94694 0 1.5714-.50817 1.5714-1.21041v-.02c0-.66126-.35251-1.03761-1.83321-1.35261-1.62181-.35633-2.36723-.885-2.36723-2.05483v-.02a2.08845 2.08845 0 0 1 2.21709-1.95137q.05.00318.09977.00876a3.65806 3.65806 0 0 1 2.478.87449l-.46327.62084a3.07777 3.07777 0 0 0 -2.03484-.77317c-.91677 0-1.50089.5086-1.50089 1.149v.02044c0 .67134.36266 1.04764 1.91375 1.38313 1.57136.34588 2.29685.92537 2.29685 2.01352v.02043c0 1.22037-1.00736 2.01389-2.40762 2.01389a4.10334 4.10334 0 0 1 -2.88091-1.13933z" fill="#005580"/><path d="m65.94908 36.46115a2.1464 2.1464 0 0 0 1.642-.74266l.48331.43764a2.67742 2.67742 0 0 1 -2.14557.98676 2.75433 2.75433 0 0 1 -.10062-5.49234 2.498 2.498 0 0 1 2.4276 2.78664c0 .07137 0 .1527-.0101.27456h-4.13a1.827 1.827 0 0 0 1.83338 1.7494zm1.521-2.37983a1.71937 1.71937 0 0 0 -1.66188-1.76947 1.80675 1.80675 0 0 0 -1.69248 1.76947z" fill="#005580"/><path d="m69.22218 35.49527v-.02044c0-1.129.90666-1.719 2.22637-1.719a5.4071 5.4071 0 0 1 1.59167.224v-.16269c0-.9358-.56433-1.424-1.54143-1.424a3.60086 3.60086 0 0 0 -1.58148.37593l-.23161-.64047a4.23381 4.23381 0 0 1 1.89364-.44767 2.29809 2.29809 0 0 1 1.68232.57993 2.09136 2.09136 0 0 1 .54389 1.54582v3.21348h-.76533v-.78271a2.27694 2.27694 0 0 1 -1.8739.89493 1.75357 1.75357 0 0 1 -1.93659-1.54907q-.00489-.04389-.00755-.08804zm3.82791-.40721v-.48812a5.31136 5.31136 0 0 0 -1.52115-.22325c-.967 0-1.521.42683-1.521 1.05726v.02044c0 .66086.60438 1.04761 1.3096 1.04761a1.56217 1.56217 0 0 0 1.72869-1.37562l.00388-.03832z" fill="#005580"/><path d="m78.599 29.90114h3.03221a2.76335 2.76335 0 0 1 2.00465.7122 1.97683 1.97683 0 0 1 .54383 1.40352v.02044a2.07573 2.07573 0 0 1 -1.91369 2.07482l2.166 2.9081h-.97734l-2.04456-2.76622h-2.01492v2.76621h-.79612zm2.962 3.63111c1.05788 0 1.81314-.54951 1.81314-1.46449v-.02043c0-.87489-.66492-1.40353-1.80343-1.40353h-2.17553v2.88845z" fill="#005580"/><path d="m87.9465 36.46115a2.1465 2.1465 0 0 0 1.64221-.74266l.4831.43764a2.67714 2.67714 0 0 1 -2.14517.98676 2.75435 2.75435 0 0 1 -.10082-5.49234 2.498 2.498 0 0 1 2.4274 2.78664c0 .07137 0 .1527-.0099.27456h-4.13a1.82736 1.82736 0 0 0 1.83318 1.7494zm1.52116-2.37983a1.71957 1.71957 0 0 0 -1.66252-1.76947 1.80669 1.80669 0 0 0 -1.69184 1.76947z" fill="#005580"/><path d="m91.55209 37.936.35291-.61a3.30867 3.30867 0 0 0 2.00461.671 1.71995 1.71995 0 0 0 1.89393-1.87126v-.62084a2.46431 2.46431 0 0 1 -2.04556 1.109 2.41943 2.41943 0 0 1 -2.44786-2.39066q-.00042-.03527.0002-.07054v-.02044a2.46118 2.46118 0 0 1 4.48287-1.424v-.94584h.77528v4.3433a2.54633 2.54633 0 0 1 -.66451 1.86079 2.72351 2.72351 0 0 1 -1.98479.70135 4.05586 4.05586 0 0 1 -2.36708-.73186zm4.27129-3.79378v-.02044a1.83211 1.83211 0 0 0 -1.88182-1.781l-.03194.00115a1.73032 1.73032 0 0 0 -1.80232 1.65517q-.00244.0575-.00106.11507v.02006a1.77079 1.77079 0 0 0 1.75134 1.79005q.026.00029.052-.0002a1.84489 1.84489 0 0 0 1.91353-1.77361l.00023-.00618z" fill="#005580"/><path d="m98.32109 29.74886h.886v.86448h-.886zm.05 2.01351h.776v5.25787h-.776z" fill="#005580"/><path d="m100.62739 34.41672v-.02a2.71493 2.71493 0 0 1 5.42952-.06126q.00023.02061.00015.04124v.02a2.71752 2.71752 0 0 1 -2.68866 2.74608q-.02082.00021-.04164.00012a2.68154 2.68154 0 0 1 -2.69968-2.66327q-.00021-.03146.00031-.06291zm4.63371 0v-.02a1.9816 1.9816 0 0 0 -1.90652-2.05394l-.02786-.00084a1.93268 1.93268 0 0 0 -1.906 1.959q.00052.03787.00252.07572v.02a1.96382 1.96382 0 0 0 1.88157 2.04274l.04248.00128a1.93165 1.93165 0 0 0 1.916-1.94722q-.00031-.0384-.00215-.07677z" fill="#005580"/><path d="m107.45675 31.76238h.77525v.91579a1.96953 1.96953 0 0 1 1.78356-1.02762 1.91245 1.91245 0 0 1 1.9943 2.10534v3.26438h-.776v-3.07081a1.3957 1.3957 0 0 0 -1.4402-1.58671 1.54077 1.54077 0 0 0 -1.56519 1.516q-.001.06586.00353.13165v3.0099h-.77524z" fill="#005580"/><path d="m99.73424 17.42242a5.20835 5.20835 0 0 0 4.84891 5.54453q.19519.01307.391.01145a4.59954 4.59954 0 0 0 3.85131-1.93333v.57793c0 2.13378-1.0781 3.24435-3.36776 3.24435a7.64079 7.64079 0 0 1 -3.98393-1.08891l-1.14485 2.5337a11.10667 11.10667 0 0 0 5.21688 1.24483c2.28966 0 3.98467-.48935 5.08508-1.60032a6.42873 6.42873 0 0 0 1.49654-4.68955v-2.35139q-1.67316-.3216-3.43608-.61479a2.77714 2.77714 0 0 1 -2.74936 1.87727 2.70581 2.70581 0 0 1 -2.85537-2.54747q-.00477-.08364-.00435-.16744-1.63868-.21765-3.33291-.41325c-.00475.10906-.0151.21521-.0151.32793z" fill="#005580"/><path d="m86.63613 18.06686a6.21915 6.21915 0 0 0 10.98387 3.93365l-1.91492-1.7113a3.84858 3.84858 0 0 1 -2.86208 1.22235 2.74254 2.74254 0 0 1 -2.88357-2.33331h8.21074c.02222-.31185.04443-.62284.04443-.88895a8.87232 8.87232 0 0 0 -.1166-1.4243q-1.60056-.172-3.244-.32505a4.14523 4.14523 0 0 1 .10239.52661h-5.0406a4.2289 4.2289 0 0 1 .262-.915q-1.59334-.1173-3.21617-.21642a6.85219 6.85219 0 0 0 -.32549 2.08728z" fill="#005580"/><path d="m81.46231 23.95638v-4.40062c0-1.983.66456-3.24033 1.81968-3.82143q-2.55325-.12205-5.16562-.19881v8.42087z" fill="#005580"/><path d="m72.26 23.95638v-4.40062c0-2.40388.97732-3.74091 2.62153-4.0984q-2.86827-.05472-5.78453-.05533c-.06113 0-.12186.00045-.18259.00045v8.55389z" fill="#005580"/><path d="m54.84687 18.06686a6.21916 6.21916 0 0 0 10.98394 3.93365l-1.915-1.7113a3.84892 3.84892 0 0 1 -2.86167 1.22235 2.74276 2.74276 0 0 1 -2.884-2.33331h8.21074c.02222-.31185.04444-.62284.04444-.88895a8.20809 8.20809 0 0 0 -.495-2.87081q-1.68687.01683-3.35707.05289a3.4306 3.4306 0 0 1 .59383 1.59513h-5.04055a3.766 3.766 0 0 1 .5661-1.48651q-1.73689.06013-3.45.13909a6.83633 6.83633 0 0 0 -.39577 2.3033z" fill="#005580"/><path d="m50.26748 24.15635a4.89836 4.89836 0 0 0 2.64142-.689v-2.71125a3.379 3.379 0 0 1 -1.651.422c-.74828 0-1.07888-.37752-1.07888-1.15545v-4.02139q-1.69055.11005-3.346.24048v4.336c0 2.75659 1.387 3.57862 3.43451 3.57862" fill="#005580"/><path d="m40.4705 17.40316v6.54921h3.346v-5.934a7.11918 7.11918 0 0 0 -.16152-1.50693q-1.63038.1491-3.22333.31745a4.36854 4.36854 0 0 1 .03892.57429" fill="#005580"/><path d="m32.44792 18.06283v5.88954h3.346v-6.54961l.00119-.02844q-1.70059.2194-3.34165.46246c-.00158.06053-.00553.12069-.00553.18157z" fill="#005580"/><path d="m29.45643 23.95638v-5.64787q-1.73574.291-3.39007.6072v5.04067z" fill="#005580"/><path d="m103.08063 17.42242v-.04442a2.87527 2.87527 0 0 1 5.7456 0v.04444a2.86283 2.86283 0 0 1 -.13494.8785q1.76011.29326 3.43685.61479v-6.87184h-3.34635v1.55585a4.76 4.76 0 0 0 -3.80846-1.7783 5.186 5.186 0 0 0 -5.22406 5.14761q-.0003.04049 0 .081 1.69229.19541 3.33372.41325c-.00081-.014-.0024-.02726-.0024-.04088" fill="#27aae1"/><path d="m92.46906 14.53317a2.411 2.411 0 0 1 2.38571 2.00669q1.641.15264 3.24319.325c-.44858-2.77385-2.25315-5.04348-5.62891-5.04348a5.7081 5.7081 0 0 0 -5.50744 4.11368q1.62314.09974 3.21617.21642a2.40307 2.40307 0 0 1 2.29128-1.61833" fill="#27aae1"/><path d="m85.05006 15.35515h.17626v-3.53369a3.6462 3.6462 0 0 0 -3.764 2.6227v-2.40067h-3.346v3.49243q2.60862.077 5.16562.198a3.90367 3.90367 0 0 1 1.76809-.37875" fill="#27aae1"/><path d="m74.8815 15.45736a4.51781 4.51781 0 0 1 .967-.10221h.1755v-3.53369a3.64629 3.64629 0 0 0 -3.764 2.6227v-2.40067h-3.34561v3.3594c.06113 0 .12145-.00089.18259-.00089q2.91528 0 5.78452.05532" fill="#27aae1"/><path d="m60.6798 14.53317a2.25129 2.25129 0 0 1 1.89312.93861q1.67025-.03608 3.35786-.0537a5.28422 5.28422 0 0 0 -5.251-3.59659 5.69105 5.69105 0 0 0 -5.43678 3.89762q1.71126-.07935 3.45-.13909a2.31151 2.31151 0 0 1 1.98679-1.04683" fill="#27aae1"/><path d="m50.17937 14.93311h2.77316v-2.88918h-2.77316v-3.0447h-3.346v3.04477h-1.40879v2.88918h1.40881v1.30818q1.65591-.12924 3.346-.24007z" fill="#27aae1"/><path d="m37.17968 14.95638a2.26474 2.26474 0 0 1 1.905 0 2.22136 2.22136 0 0 1 1.34689 1.87285q1.5905-.16952 3.22333-.31816a5.7682 5.7682 0 0 0 -2.99153-4.00948 5.04355 5.04355 0 0 0 -5.06285 0 5.97149 5.97149 0 0 0 -3.14712 5.33521q1.63989-.24351 3.34164-.46246a2.36155 2.36155 0 0 1 1.3846-2.41794" fill="#27aae1"/><path d="m29.45643 8.39915h-3.39007v10.51693q1.65171-.31739 3.39007-.60761z" fill="#27aae1"/><path d="m5.04864 11.7243a1.26822 1.26822 0 0 0 -1.26211 1.27431v2.54852a1.26227 1.26227 0 1 0 2.52443.0234q.0001-.0116 0-.0232v-2.54857a1.26828 1.26828 0 0 0 -1.26209-1.27446z" fill="#005580"/><path d="m8.83524 9.68531a1.26806 1.26806 0 0 0 -1.26191 1.2742v5.09741a1.26209 1.26209 0 1 0 2.52407.02417q.0001-.01209 0-.02417v-5.09734a1.2679 1.2679 0 0 0 -1.26148-1.27427z" fill="#005580"/><path d="m12.62188 6.117a1.26842 1.26842 0 0 0 -1.26232 1.2743l.00016.001-.00016 7.64391v.00079a1.26217 1.26217 0 1 0 2.52423.0243q.00012-.01206 0-.02414l.0002-7.64591a1.26807 1.26807 0 0 0 -1.2618-1.27425z" fill="#27aae1"/><path d="m16.40852 1.7843a1.2681 1.2681 0 0 0 -1.26236 1.27381v.00028l.0002.00057v10.19388l-.0002.00045a1.26268 1.26268 0 0 0 2.52525.02438q.00012-.01209 0-.02418v-10.1951a1.26844 1.26844 0 0 0 -1.26278-1.27409z" fill="#27aae1"/><path d="m20.19553.2551a1.26807 1.26807 0 0 0 -1.262 1.27416v7.64643a1.26227 1.26227 0 1 0 2.52443.0232q.00011-.0116 0-.0232v-7.64629a1.26868 1.26868 0 0 0 -1.26243-1.2743z" fill="#27aae1"/><path d="m23.98172 0a1.26829 1.26829 0 0 0 -1.26154 1.2745v5.09713a1.2621 1.2621 0 1 0 2.52406.02634q.00014-.013 0-.026v-5.09747a1.26887 1.26887 0 0 0 -1.26252-1.2745z" fill="#9aca3c"/><path d="m27.76832 1.14723a1.268 1.268 0 0 0 -1.26192 1.274v2.54889a1.26228 1.26228 0 1 0 2.52444.024q.00012-.012 0-.024v-2.5486a1.26833 1.26833 0 0 0 -1.26232-1.27429z" fill="#9aca3c"/><path d="m32.81708 4.588a1.27431 1.27431 0 1 1 0-.00007z" fill="#9aca3c"/><path d="m2.52436 14.01793a1.26852 1.26852 0 0 1 -1.262 1.27451 1.27455 1.27455 0 0 1 0-2.549 1.26851 1.26851 0 0 1 1.262 1.27449z" fill="#005580"/><path d="m120.878 40.273h2.93v.421h-2.472v1.396h2.213v.423h-2.213v1.432h2.502v.42h-2.96z" fill="#034ea2"/><path d="m124.69453 42.6522v-2.38h.45781v2.35022c0 .88353.46328 1.38024 1.23975 1.38024.7466 0 1.22145-.45471 1.22145-1.35055v-2.38h.459v2.34539a1.69219 1.69219 0 1 1 -3.378.03461" fill="#034ea2"/><path d="m129.15573 40.27228h1.74345a1.59189 1.59189 0 0 1 1.15285.41023 1.13328 1.13328 0 0 1 .31214.80563v.01112a1.19338 1.19338 0 0 1 -1.10029 1.19368l1.24347 1.6719h-.56113l-1.17622-1.59034h-1.15843v1.59034h-.4559zm1.70186 2.087c.60829 0 1.04334-.31514 1.04334-.84272v-.01112c0-.50172-.38184-.807-1.03786-.807h-1.25148v1.66077z" fill="#034ea2"/><path d="m133.16343 42.33093v-.01238a2.06854 2.06854 0 1 1 4.136-.09634q.001.04262.00023.08524v.0111a2.06543 2.06543 0 0 1 -2.01348 2.11608q-.03113.00077-.06227.0006a2.04418 2.04418 0 0 1 -2.06125-2.027q-.00032-.03867.00082-.07733m3.66006 0v-.01238a1.62081 1.62081 0 0 0 -1.55085-1.68788l-.04882-.00133a1.60071 1.60071 0 0 0 -1.5874 1.6139q.00027.03213.00182.06422v.01109a1.62029 1.62029 0 0 0 1.5485 1.689l.0487.00138a1.60185 1.60185 0 0 0 1.5898-1.61381q-.00024-.03213-.00178-.06422" fill="#034ea2"/><path d="m138.26589 40.27228h1.51761c.9149 0 1.51827.49176 1.51827 1.29742v.01361c0 .88106-.7301 1.33828-1.59354 1.33828h-.98523v1.44325h-.45714zm1.45888 2.22788c.67312 0 1.11373-.36328 1.11373-.9008v-.01231c0-.58328-.43508-.88849-1.08928-.88849h-1.02622v1.8016z" fill="#034ea2"/><path d="m142.135 40.273h2.93v.421h-2.472v1.396h2.214v.423h-2.214v1.432h2.502v.42h-2.96z" fill="#034ea2"/><path d="m147.51493 40.24259h.429l1.84932 4.12225h-.49385l-.47429-1.08124h-2.20611l-.48222 1.08124h-.46872zm1.13026 2.62587-.92033-2.08712-.92651 2.08712z" fill="#034ea2"/><path d="m150.593 40.273h.426l2.556 3.28v-3.28h.445v4.092h-.366l-2.615-3.357v3.357h-.446z" fill="#034ea2"/><path d="m156.84232 42.6522v-2.38h.45714v2.35022c0 .88353.46141 1.38024 1.23856 1.38024.74665 0 1.22268-.45471 1.22268-1.35055v-2.38h.4578v2.34539a1.69131 1.69131 0 1 1 -3.37618.03461" fill="#034ea2"/><path d="m161.302 40.273h.429l2.553 3.28v-3.28h.445v4.092h-.365l-2.616-3.357v3.357h-.446z" fill="#034ea2"/><path d="m165.91758 40.27228h.45775v4.09381h-.45775z" fill="#034ea2"/><path d="m167.3826 42.33093v-.01238a2.06854 2.06854 0 1 1 4.136-.09634q.001.04262.00023.08524v.0111a2.06852 2.06852 0 0 1 -4.13594.09571q-.001-.04165-.00024-.08333m3.66006 0v-.01238a1.62045 1.62045 0 0 0 -1.55011-1.68788l-.04769-.00133a1.60157 1.60157 0 0 0 -1.58981 1.61324q.00024.03246.00179.06488v.01109a1.6223 1.6223 0 0 0 1.55263 1.68912l.047.0013a1.60145 1.60145 0 0 0 1.58793-1.61485q-.00027-.0316-.00178-.06318" fill="#034ea2"/><path d="m172.484 40.273h.43l2.554 3.28v-3.28h.446v4.092h-.365l-2.618-3.357v3.357h-.447z" fill="#034ea2"/><path d="m120.88982.08298h55.03598v37.04277h-55.03598z" fill="#034ea2"/><path d="m147.234 8.153 1.163-.855 1.162.855-.444-1.383 1.181-.857h-1.456l-.443-1.399-.446 1.402-1.452-.003 1.177.857z" fill="#fff200"/><path d="m141.226 9.784 1.161-.856 1.158.856-.44-1.383 1.178-.857h-1.454l-.443-1.4-.445 1.402-1.454-.002 1.178.857z" fill="#fff200"/><path d="m137.987 10.593-.443 1.404-1.454-.003 1.182.857-.444 1.382 1.159-.854 1.164.854-.443-1.382 1.178-.857h-1.452z" fill="#fff200"/><path d="m136.374 19.44 1.164.854-.445-1.385 1.181-.854h-1.452l-.448-1.402-.442 1.405-1.457-.003 1.181.854-.441 1.385z" fill="#fff200"/><path d="m138.434 24.133-.447-1.403-.443 1.404-1.452-.001 1.18.856-.443 1.384 1.158-.859 1.164.859-.443-1.384 1.178-.856z" fill="#fff200"/><path d="m142.841 28.581-.446-1.399-.445 1.401-1.453-.002 1.18.855-.443 1.386 1.161-.855 1.162.855-.443-1.386 1.181-.855z" fill="#fff200"/><path d="m148.843 30.192-.446-1.401-.444 1.403-1.457-.002 1.18.856-.441 1.384 1.164-.855 1.16.855-.442-1.384 1.179-.856z" fill="#fff200"/><path d="m154.844 28.581-.446-1.399-.444 1.401-1.454-.002 1.178.855-.44 1.386 1.16-.855 1.163.855-.445-1.386 1.182-.855z" fill="#fff200"/><path d="m159.251 24.133-.446-1.403-.445 1.404-1.453-.001 1.179.856-.442 1.384 1.161-.859 1.162.859-.442-1.384 1.177-.856z" fill="#fff200"/><path d="m162.3 18.039h-1.456l-.444-1.403-.445 1.403h-1.453l1.178.854-.438 1.383 1.158-.856 1.161.856-.442-1.383z" fill="#fff200"/><path d="m157.644 14.216 1.161-.856 1.162.856-.442-1.384 1.18-.854h-1.454l-.446-1.402-.445 1.403-1.453-.001 1.179.854z" fill="#fff200"/><path d="m154.417 6.145-.446 1.404-1.451-.004 1.176.859-.441 1.382 1.162-.857 1.161.857-.443-1.382 1.18-.859h-1.454z" fill="#fff200"/><g fill="#58595b"><path d="m181.72527 12.86882h2.93683v.42265h-2.47845v1.4h2.21768v.42135h-2.21768v1.43588h2.50774v.42266h-2.96612z"/><path d="m185.55121 15.25373v-2.38491h.45832v2.35525c0 .88472.4651 1.38268 1.24289 1.38268.74909 0 1.22451-.45722 1.22451-1.35306v-2.38487h.4584v2.35025a1.69534 1.69534 0 1 1 -3.38414.03461z"/><path d="m190.02275 12.86882h1.74713a1.59071 1.59071 0 0 1 1.15476.41022 1.1366 1.1366 0 0 1 .314.80936v.01114a1.19542 1.19542 0 0 1 -1.10339 1.19493l1.24775 1.67686h-.56234l-1.17866-1.59407h-1.16085v1.59407h-.45836zm1.70613 2.092c.60955 0 1.04582-.31638 1.04582-.84394v-.01238c0-.50292-.38428-.8081-1.04028-.8081h-1.25331v1.6644z"/><path d="m194.04206 14.9312v-.01113a2.07224 2.07224 0 1 1 4.1433-.09856q.001.04371.00023.08744c.00554.00491.00554.00491 0 .01112a2.07224 2.07224 0 1 1 -4.1433.09856q-.00104-.04371-.00023-.08743zm3.66684 0v-.01113a1.62313 1.62313 0 0 0 -1.55045-1.69269l-.05045-.00138a1.6048 1.6048 0 0 0 -1.59232 1.61719q.00024.03293.00185.06581v.01112a1.623 1.623 0 0 0 1.55152 1.69151l.05055.00139a1.60428 1.60428 0 0 0 1.59112-1.61735q-.00027-.03222-.00182-.06442z"/><path d="m199.1574 12.86882h1.52066c.91672 0 1.52073.49175 1.52073 1.30115v.01114c0 .88479-.73191 1.34194-1.59654 1.34194h-.98652v1.44828h-.45832zm1.46192 2.23287c.67377 0 1.11438-.36453 1.11438-.90324v-.01117c0-.58574-.43448-.89093-1.0905-.89093h-1.0275v1.8053z"/><path d="m203.03592 12.86882h2.93682v.42265h-2.47781v1.4h2.21707v.42135h-2.21711v1.43588h2.50713v.42266h-2.96615z"/><path d="m208.4291 12.83912h.43013l1.85184 4.13221h-.49322l-.47672-1.085h-2.21036l-.4822 1.085h-.47057zm1.1327 2.632-.92342-2.092-.92834 2.092z"/><path d="m211.51455 12.86882h.429l2.55979 3.28692v-3.28692h.44666v4.10251h-.36587l-2.62286-3.3648v3.3648h-.44674z"/><path d="m181.72527 19.45685h1.74649a1.59147 1.59147 0 0 1 1.1554.41022 1.14126 1.14126 0 0 1 .31335.80941v.01113a1.19442 1.19442 0 0 1 -1.10276 1.19493l1.24775 1.67555h-.56234l-1.17865-1.594h-1.16086v1.594h-.45838zm1.70615 2.092c.60948 0 1.04525-.31754 1.04525-.8439v-.01117c0-.50413-.38371-.80936-1.03973-.80936h-1.25329v1.66443z"/><path d="m185.92389 19.45685h2.93675v.42139h-2.47839v1.4013h2.21711v.42135h-2.21711v1.43585h2.50775v.42135h-2.96615z"/><path d="m189.63478 21.52045v-.01235a2.0488 2.0488 0 0 1 1.97465-2.12038l.06194-.00127a2.13323 2.13323 0 0 1 1.51525.54493l-.29683.35214a1.71736 1.71736 0 0 0 -1.23611-.46949 1.59691 1.59691 0 0 0 -1.54488 1.64729l.00155.03565v.01113a1.57862 1.57862 0 0 0 1.60755 1.70525 1.8923 1.8923 0 0 0 1.1719-.41147v-1.01825h-1.23611v-.4164h1.67731v1.63611a2.447 2.447 0 0 1 -1.63023.62523 2.00117 2.00117 0 0 1 -2.06781-1.9322q-.00296-.08796.00182-.17592z"/><path d="m194.4074 19.45685h.45893v4.10124h-.45893z"/><path d="m195.8773 21.52045v-.01235a2.07224 2.07224 0 0 1 4.14331-.09856q.001.04371.00023.08743c.00613.00623.00613.00623 0 .01113a2.0722 2.0722 0 0 1 -4.14329.0962q-.00096-.04192-.00025-.08385zm3.66749 0v-.01235a1.6236 1.6236 0 0 0 -1.55147-1.69267l-.05-.00141a1.6048 1.6048 0 0 0 -1.59235 1.61713q.00026.03293.00186.06582v.01113a1.62339 1.62339 0 0 0 1.55228 1.69153l.04979.00137a1.60411 1.60411 0 0 0 1.5917-1.61643q-.00027-.03207-.00181-.06412z"/><path d="m200.99263 19.45685h.429l2.55979 3.28692v-3.28692h.44671v4.10124h-.36526l-2.62287-3.36228v3.36228h-.44737z"/><path d="m207.08338 19.42845h.43026l1.85117 4.12964h-.49329l-.476-1.08371h-2.211l-.48169 1.08371h-.47119zm1.13214 2.62953-.92347-2.092-.92768 2.092z"/><path d="m210.16826 19.45685h.45832v3.67368h2.28685v.42756h-2.74521z"/><path d="m181.72527 26.04366h1.41a2.03449 2.03449 0 0 1 2.15515 1.90621q.00412.06748.00378.13514v.01113a2.0426 2.0426 0 0 1 -2.03186 2.05328q-.06356.00033-.12707-.00329h-1.41zm1.41 3.67493a1.57964 1.57964 0 0 0 1.68048-1.4719q.00459-.0696.00305-.13939v-.01112a1.59011 1.59011 0 0 0 -1.55208-1.62727q-.06573-.00156-.13145.00232h-.95157v3.24733z"/><path d="m186.26657 26.04366h2.93678v.42262h-2.47842v1.40132h2.21771v.4214h-2.21771v1.43466h2.50778v.42257h-2.96616z"/><path d="m189.80856 26.04366h.511l1.44543 3.53285 1.45092-3.53285h.49322l-1.74656 4.13216h-.40633z"/><path d="m194.51265 26.04366h2.93673v.42262h-2.47838v1.40132h2.21711v.4214h-2.21711v1.43466h2.50778v.42257h-2.9661z"/><path d="m198.40287 26.04366h.45832v3.67493h2.28629v.42758h-2.74461z"/><path d="m201.5856 28.1073v-.01112a2.07227 2.07227 0 1 1 4.1433-.10106q.00109.045.00024.08993c.00553.00491.00553.00491 0 .01113a2.07221 2.07221 0 1 1 -4.14331.096q-.00099-.04242-.00023-.08488zm3.66686 0v-.01112a1.62422 1.62422 0 0 0 -1.55134-1.694l-.04951-.00142a1.60562 1.60562 0 0 0 -1.593 1.61813q.00027.03308.00189.06612v.01113a1.6234 1.6234 0 0 0 1.55228 1.69153l.04979.00137a1.60441 1.60441 0 0 0 1.5917-1.617q-.00027-.03237-.00181-.06474z"/><path d="m206.70035 26.04366h1.52128c.91672 0 1.52074.49305 1.52074 1.30241v.01114c0 .88353-.73193 1.34194-1.59663 1.34194h-.98646v1.447h-.45893zm1.46259 2.2342c.67372 0 1.11433-.36456 1.11433-.90327v-.01113c0-.58575-.43507-.89219-1.09111-.89219h-1.02688v1.80659z"/><path d="m210.57947 26.04366h.46445l1.47977 2.23908 1.48028-2.23908h.46385v4.10251h-.45832v-3.32275l-1.47969 2.19829h-.02327l-1.47968-2.19333v3.31781h-.44737z"/><path d="m215.62014 26.04366h2.93679v.42262h-2.47843v1.40132h2.21772v.4214h-2.21772v1.43466h2.5078v.42257h-2.96616z"/><path d="m219.51033 26.04366h.42956l2.55921 3.287v-3.287h.44735v4.10251h-.36594l-2.62286-3.36353v3.36353h-.44731z"/><path d="m225.17208 26.47123h-1.364v-.42757h3.19192v.42757h-1.36342v3.67494h-.4645z"/><path d="m181.72527 32.599h2.91965v.42753h-2.46127v1.46547h2.19935v.42262h-2.19932v1.78559h-.45838z"/><path d="m185.46984 34.985v-2.386h.45837v2.35521c0 .886.465 1.384 1.24343 1.384.74849 0 1.224-.45844 1.224-1.35311v-2.3861h.45832v2.349a1.69533 1.69533 0 1 1 -3.3841.037z"/><path d="m189.942 32.599h.429l2.55921 3.287v-3.287h.44736v4.10128h-.36594l-2.62287-3.36236v3.36236h-.44676z"/><path d="m194.52979 32.599h1.40994a2.03425 2.03425 0 0 1 2.15514 1.9057q.00411.06715.0038.13446v.01108a2.04267 2.04267 0 0 1 -2.03194 2.05333q-.06354.00033-.127-.00329h-1.40994zm1.40994 3.67371a1.57867 1.57867 0 0 0 1.68036-1.46995q.00466-.07.00312-.14012v-.01244a1.58914 1.58914 0 0 0 -1.5513-1.6261q-.0661-.00156-.13218.00239h-.95157v3.24618z"/></g></svg>