<svg xmlns="http://www.w3.org/2000/svg" viewBox="0 0 148.47834 50" class="w-100 img-fluid replaced-svg"><title>logo</title><path d="M31.49561,9.00776a2.35259,2.35259,0,0,0,.45081.71191,3.18013,3.18013,0,0,0,1.67218.92954,3.31659,3.31659,0,0,0,1.91425-.11681,2.15319,2.15319,0,0,0,.655-.40554,2.6464,2.6464,0,0,0,.63375-.84108,3.108,3.108,0,0,0,.25912-1.39956,4.79842,4.79842,0,0,0-.49834-2.17965A2.34675,2.34675,0,0,0,35.53825,4.684a3.10567,3.10567,0,0,0-1.42941-.28042,4.06017,4.06017,0,0,0-1.65567.40687,2.31407,2.31407,0,0,0-1.27979,1.42118,4.3697,4.3697,0,0,0,.32226,2.77608Zm33.96957,7.92449,2.1731-2.57178a7.46389,7.46389,0,0,0-5.25187-2.2454c-3.92965,0-6.82716,2.73452-6.82716,6.42882a6.44046,6.44046,0,0,0,6.33749,6.54182q.18145.00288.36285-.00447a7.67355,7.67355,0,0,0,5.37868-2.44472l-2.17309-2.318a4.59375,4.59375,0,0,1-3.02435,1.467,3.0936,3.0936,0,0,1-3.02933-3.15657q.00125-.06072.00488-.12135a3.07776,3.07776,0,0,1,2.89-3.25471q.06717-.004.13447-.005A4.13426,4.13426,0,0,1,65.46518,16.93225Zm15.03061,7.98613-2.57139-4.1471a4.33022,4.33022,0,0,0,2.13669-4.03835c0-2.87941-1.95573-4.50928-5.36024-4.50928h-5.922V24.91838h3.76683V21.49556h1.992l1.68432,3.42282Zm-7.95007-9.79722h2.15513a1.58842,1.58842,0,0,1,1.77464,1.72051,1.59856,1.59856,0,0,1-1.77464,1.75654H72.54573V15.12116Zm9.36247-2.89751V24.91838H92.46612V22.02087h-6.791V20.01058h5.99421v-2.8975H85.67513V15.12116H92.2849V12.22365Zm21.659,12.69473h4.02025l-5.23374-12.69473H98.47847L93.06373,24.91838h3.87521L97.69968,22.89h5.12486l.74272,2.02837ZM98.75,20.13765l1.55748-4.14709,1.52111,4.14709Zm7.38856-7.914h11.15547V15.2299h-3.69426v9.68848h-3.785V15.22986h-3.6762V12.22369Zm12.33256,0V24.91838h3.76675V12.22365Zm4.781,0,4.85337,12.69472H132.017l4.90752-12.69473h-3.85712l-2.89756,8.78305-2.89773-8.78306Zm14.66829,0V24.91838h10.55791V22.02087h-6.79108V20.01058h5.99425v-2.8975h-5.99425V15.12116h6.60992V12.22365ZM62.94783,32.12475H57.18909v12.6946h3.76682V41.39662h1.99192c3.27805,0,5.16126-1.73853,5.16126-4.76277,0-2.87941-1.88321-4.50914-5.16126-4.50914ZM62.767,38.4991h-1.811v-3.477h1.811a1.73885,1.73885,0,0,1,.07141,3.477Q62.80267,38.49983,62.767,38.4991ZM75.75126,32.016c-3.98423,0-6.9178,2.71652-6.9178,6.44687,0,3.7486,2.93357,6.5193,6.9178,6.5193,3.98384,0,6.91768-2.7888,6.91768-6.5193C82.66894,34.75056,79.7351,32.016,75.75126,32.016Zm.05416,3.15086a3.11263,3.11263,0,0,1,3.01111,3.211q-.00165.05161-.005.10315a3.14539,3.14539,0,0,1-2.9309,3.34615q-.03758.00249-.07519.00407a3.23009,3.23009,0,0,1-3.11513-3.34109l.00034-.00913a3.18618,3.18618,0,0,1,3.0549-3.31226Zm19.993,9.65245-2.57148-4.1471a4.33011,4.33011,0,0,0,2.13682-4.0384c0-2.87941-1.95586-4.50914-5.36024-4.50914h-5.922V44.81935h3.76682V41.39662h1.99192l1.68424,3.42273ZM87.8483,35.02213h2.15514a1.73885,1.73885,0,1,1,.07141,3.477q-.0357.00073-.07141,0H87.8483ZM96.251,32.12475v3.00611h3.6763v9.68849h3.78491V35.13086h3.69426V32.12475ZM117.71067,36.326l1.39436-2.8975a10.22595,10.22595,0,0,0-5.306-1.46661c-3.169,0-5.25149,1.55718-5.25149,4.00194,0,4.47309,6.62784,3.2596,6.62784,5.17936,0,.57946-.50695.8513-1.30371.8513a8.673,8.673,0,0,1-4.72657-1.93773l-1.41258,2.86133a10.35539,10.35539,0,0,0,6.103,2.01c2.843,0,5.23352-1.28579,5.23352-3.98424,0-4.58153-6.62788-3.477-6.62788-5.34223,0-.47075.41634-.68817,1.05027-.68817a10.54539,10.54539,0,0,1,4.2193,1.41254ZM13.99457,2.84417a2.44861,2.44861,0,0,1,4.71516,1.32268c-.7175,2.54581-1.39246,5.50751-1.99742,8.70293,3.55737.03742,7.47306.11136,11.21267.22326q.60429.01816,1.20238.03783-.2297-.21114-.44144-.44395a6.75216,6.75216,0,0,1-1.27926-2.05766,8.62638,8.62638,0,0,1-.46029-5.62268A6.601,6.601,0,0,1,30.521.85974,8.53337,8.53337,0,0,1,34.00522.00443,7.46771,7.46771,0,0,1,37.45313.716a6.69425,6.69425,0,0,1,3.011,2.88615A9.1461,9.1461,0,0,1,41.4799,7.783a7.4233,7.4233,0,0,1-.65585,3.34858,7.01174,7.01174,0,0,1-1.66893,2.25566q-.12.10929-.24475.2109a40.81122,40.81122,0,0,1,5.43112.62754,2.4431,2.4431,0,0,1-1.12475,4.755l-.00614-.00146a60.67005,60.67005,0,0,0-7.84784-.70443c-.58872,4.13038-1.09945,8.39578-1.4932,12.60087,3.16586.17611,5.87106.40924,7.71843.69456A2.45345,2.45345,0,0,1,40.85,36.42127l-.00953-.00147c-1.76839-.27293-4.35223-.49673-7.37646-.66607-.23212,3.23209-.38288,6.37436-.43281,9.33117a9.76533,9.76533,0,0,0,5.93143-2.155,7.70157,7.70157,0,0,0,.79539-.79477,2.44616,2.44616,0,0,1,3.69981,3.201h0a12.5462,12.5462,0,0,1-1.29415,1.29327c-3.33209,2.875-7.80253,3.70121-12.03936,3.25878a20.05017,20.05017,0,0,1-10.58512-4.23074A10.8973,10.8973,0,0,1,18.411,44.53492,2.446,2.446,0,1,1,22.108,41.33116l.00242.0028a6.11014,6.11014,0,0,0,.62966.62381,13.57585,13.57585,0,0,0,5.39317,2.6151c.05767-2.87365.206-5.91245.42911-9.03424-2.16192-.072-4.42616-.12082-6.69454-.14482-2.66242-.02831-5.32637-.02294-7.835.01749a96.03333,96.03333,0,0,0-.02118,10.03908,2.4476,2.4476,0,0,1-4.88784.26832h0a99.7544,99.7544,0,0,1,.00074-10.1724c-2.55465.10449-4.75963.25761-6.37488.4628a2.44408,2.44408,0,0,1-.61355-4.8495c1.84152-.23415,4.376-.40424,7.29347-.51484.15851-2.02811.35673-4.08505.58973-6.136.25972-2.28322.56273-4.563.902-6.79136-3.12643.00212-5.395.04689-6.08582.13513A2.44412,2.44412,0,0,1,4.22192,13.003h0c.85293-.10858,3.70077-.1634,7.5151-.162.6728-3.674,1.43777-7.08878,2.25764-9.99676ZM30.442,18.06749c-.86777-.03046-1.75416-.05939-2.651-.08638-4.01753-.1202-8.21588-.19919-11.91855-.23727-.37292,2.38347-.70429,4.83879-.98422,7.30149-.20844,1.8313-.388,3.66471-.53531,5.47352,2.438-.03633,4.9995-.0402,7.55345-.01322,2.39268.02532,4.781.07736,7.05769.15424C29.35253,26.4767,29.85741,22.21583,30.442,18.06749Z" style="fill:#000003;fill-rule:evenodd"></path></svg>
